<?xml version="1.0" encoding="UTF-8"?>
<!DOCTYPE svg PUBLIC "-//W3C//DTD SVG 1.1//EN" "http://www.w3.org/Graphics/SVG/1.1/DTD/svg11.dtd">
<!-- Creator: CorelDRAW 2021 (64-Bit) -->
<svg xmlns="http://www.w3.org/2000/svg" xml:space="preserve" width="210mm" height="297mm" version="1.1" style="shape-rendering:geometricPrecision; text-rendering:geometricPrecision; image-rendering:optimizeQuality; fill-rule:evenodd; clip-rule:evenodd"
viewBox="0 0 21000 29700"
 xmlns:xlink="http://www.w3.org/1999/xlink"
 xmlns:xodm="http://www.corel.com/coreldraw/odm/2003">
 <defs>
  <style type="text/css">
   <![CDATA[
    .fil4 {fill:#004787;fill-rule:nonzero}
    .fil3 {fill:#0455BF;fill-rule:nonzero}
    .fil0 {fill:#3AD29F;fill-rule:nonzero}
    .fil1 {fill:#535461;fill-rule:nonzero}
    .fil6 {fill:#CC2600;fill-rule:nonzero}
    .fil10 {fill:#DFEAEF;fill-rule:nonzero}
    .fil9 {fill:#EDAA03;fill-rule:nonzero}
    .fil5 {fill:#F74E0C;fill-rule:nonzero}
    .fil7 {fill:#FDFEFF;fill-rule:nonzero}
    .fil8 {fill:#FEBC00;fill-rule:nonzero}
    .fil2 {fill:white;fill-rule:nonzero;fill-opacity:0.101961}
   ]]>
  </style>
 </defs>
 <g id="Layer_x0020_1">
  <metadata id="CorelCorpID_0Corel-Layer"/>
  <polygon class="fil0" points="15561.21,16256.79 14860.6,16256.79 14983.36,15836.37 15403.52,15836.37 "/>
  <polygon class="fil1" points="15403.52,15853.83 14983.36,15853.83 14738.1,15713.86 15648.79,15713.86 "/>
  <path class="fil2" d="M14142.78 9567.33c0,0 -1225.81,665.43 -1400.97,1996.28m1400.97 -1996.28l0 0 0 0z"/>
  <g id="_1788272940496">
   <g id="_3013797703408">
    <g id="_2106176279216">
     <g id="_15_Knowleade" data-name="15_Knowleade">
      <rect class="fil3" x="17187.51" y="11372.58" width="188.47" height="1319.27"/>
      <rect class="fil4" x="17187.51" y="11372.58" width="94.23" height="1319.27"/>
      <path class="fil5" d="M17564.44 14011.11l-565.4 0c-52.03,0 -94.23,-42.2 -94.23,-94.24l0 -1130.78c0,-52.04 42.2,-94.24 94.23,-94.24l565.4 0c52.04,0 94.24,42.2 94.24,94.24l0 1130.79c0,52.03 -42.2,94.23 -94.24,94.23l0 0z"/>
      <path class="fil6" d="M17658.68 13822.64c-312.21,0 -565.4,-253.19 -565.4,-565.39l0 -565.4 -94.24 0c-52.03,0 -94.23,42.2 -94.23,94.24l0 1130.79c0,52.03 42.2,94.23 94.23,94.23l565.4 0c52.04,0 94.24,-42.2 94.24,-94.24l0 -94.23z"/>
      <path class="fil3" d="M16622.11 13163.02l-3203.92 0c-52.03,0 -94.23,-42.2 -94.23,-94.23l0 -1696.2c0,-52.04 42.2,-94.24 94.23,-94.24l3203.92 0.01c52.04,-0.01 94.24,42.19 94.24,94.23l-0.01 1696.2c0.01,52.03 -42.19,94.23 -94.23,94.23z"/>
      <path class="fil4" d="M15208.61 12974.55c-936.61,0 -1696.18,-759.57 -1696.18,-1696.19l-94.24 0c-52.03,-0.01 -94.23,42.19 -94.23,94.23l0 1696.2c0,52.03 42.2,94.23 94.23,94.23l3203.92 0c52.04,0 94.24,-42.2 94.24,-94.23l-0.01 -94.24 -1507.73 0z"/>
      <path class="fil3" d="M17470.21 11466.82l-4900.12 0c-52.03,0 -94.23,-42.2 -94.23,-94.23l0 -376.94c0,-52.03 42.2,-94.23 94.23,-94.23l4900.12 0c52.03,0 94.23,42.2 94.23,94.23l0 376.94c0,52.03 -42.2,94.23 -94.23,94.23z"/>
      <path class="fil4" d="M12758.56 11278.36c-52.03,0 -94.23,-42.2 -94.23,-94.24l-0.01 -282.7 -94.23 0c-52.03,0 -94.23,42.2 -94.23,94.23l0 376.94c0,52.03 42.2,94.23 94.23,94.23l4900.12 0c52.03,0 94.23,-42.2 94.23,-94.23l0 -94.23 -4805.88 0z"/>
      <path class="fil7" d="M17281.74 15801.54l-4334.72 0c-312.58,-0.41 -565.84,-254.02 -565.84,-566.62 0,-18.47 0.9,-37.01 2.7,-55.35 37.14,-290.84 284.83,-508.86 578.13,-508.86 2,0 4.13,0 6.12,0l4313.61 0.03c52.04,0 94.24,42.2 94.24,94.23l0 942.34c0,52.03 -42.2,94.23 -94.24,94.23z"/>
      <path class="fil7" d="M15856.94 14105.34l-3475.32 0c-52.03,0 -94.23,-42.2 -94.23,-94.23l0 -565.39c0,-52.04 42.2,-94.24 94.24,-94.24l3486.62 0.01c-0.01,0 0.13,0 0.13,0 208.13,0 376.93,168.79 376.93,376.92 0,24.89 -2.53,49.88 -7.41,74.27 -37.57,176.49 -193.5,302.72 -373.99,302.72 -2.29,0 -4.71,-0.04 -6.95,-0.04l-0.02 -0.02z"/>
      <path class="fil8" d="M17375.98 16178.47l-4398.8 0c-4.25,-0.03 -8.71,0.09 -13.05,0.09 -498.37,0 -914.25,-381.26 -957.55,-877.63 -1.44,-22 -2.35,-44.27 -2.35,-66.32 0,-238.57 91.25,-468.35 254.9,-641.83 178.21,-190.11 427.23,-298.51 687.91,-298.97l4428.94 0c156.1,0 282.7,126.59 282.7,282.7 -0.87,155.73 -126.97,281.83 -282.71,282.7l-4408.21 0c-2.19,-0.02 -4.59,-0.06 -6.84,-0.06 -196.22,0 -362.33,144.88 -388.93,339.28 -1.27,12.6 -1.95,25.39 -1.95,38.08 0,93.42 35.02,183.56 98.08,252.46 71.34,78.65 172.69,123.78 278.92,124.1l4428.94 0c156.1,0 282.7,126.6 282.7,282.7 -0.87,155.74 -126.97,281.84 -282.71,282.7l0.01 0z"/>
      <path class="fil9" d="M17564.44 15990.01l-4398.79 0c-4.26,-0.03 -8.72,0.08 -13.06,0.08 -498.36,0 -914.24,-381.25 -957.54,-877.63 -1.43,-21.89 -2.35,-44.12 -2.35,-66.13 0,-202.14 65.79,-399.14 187.1,-560.69 -236.3,175.32 -375.74,452.49 -375.74,746.81 0,22.83 0.91,45.76 2.5,68.48 43.32,496.37 459.2,877.63 957.57,877.63 4.34,0 8.8,-0.12 13.02,-0.12l4398.83 0.03c124.49,-0.14 234.18,-82.23 269.51,-201.58 -26.24,8.32 -53.58,12.73 -81.05,13.11l0 0.01z"/>
      <path class="fil5" d="M15845.63 14482.28l-3464.01 0c-156.1,0 -282.69,-126.6 -282.69,-282.71 0.86,-155.73 126.96,-281.83 282.7,-282.7l3475.31 0.01c1.71,0.02 3.51,0.07 5.23,0.07 90.4,0 169.13,-61.8 190.59,-149.61 2.67,-12.8 4.06,-25.86 4.06,-38.93 0,-104.07 -84.4,-188.47 -188.47,-188.47 -0.02,0 -0.09,0 -0.12,0l-3486.61 0c-156.1,0 -282.69,-126.58 -282.69,-282.69 0.86,-155.73 126.96,-281.83 282.7,-282.7l3486.62 0c416.45,0.37 753.91,338.2 753.91,754.61 0,32.7 -2.12,65.41 -6.35,97.84l-0.01 -0.02c-55.33,376.34 -378.37,655.38 -758.81,655.38 -3.74,0 -7.68,-0.1 -11.33,-0.1l-0.03 0.02z"/>
      <path class="fil6" d="M16434.49 13231.15c-40.04,-45.21 -85.57,-85.6 -135.32,-119.93 87.47,126.44 134.41,276.8 134.41,430.57 0,32.44 -2.12,64.97 -6.28,97.13 -55.43,376.13 -378.47,654.97 -758.72,654.97 -3.74,0 -7.77,-0.09 -11.42,-0.09l-3464 0.01c-27.47,-0.38 -54.79,-4.88 -80.96,-13.28 35.45,119.31 144.95,201.33 269.42,201.75l3464.01 0c3.68,-0.02 7.62,0.08 11.36,0.08 380.44,0 703.48,-279.04 758.82,-655.36 4.16,-32.28 6.28,-64.87 6.28,-97.36 0,-183.34 -66.74,-360.65 -187.58,-498.48l-0.02 -0.01z"/>
      <rect class="fil10" x="14737.44" y="13634.19" width="1036.57" height="188.47"/>
      <rect class="fil10" x="15491.31" y="15141.91" width="1884.66" height="188.47"/>
      <rect class="fil10" x="15114.38" y="15141.91" width="188.47" height="188.47"/>
      <rect class="fil10" x="14360.51" y="13634.19" width="188.47" height="188.47"/>
     </g>
    </g>
   </g>
  </g>
 </g>
</svg>
